<?xml version="1.0" standalone="no"?>
<!DOCTYPE svg PUBLIC "-//W3C//DTD SVG 20010904//EN"
 "http://www.w3.org/TR/2001/REC-SVG-20010904/DTD/svg10.dtd">
<svg version="1.0" xmlns="http://www.w3.org/2000/svg"
 width="1280.000000pt" height="720.000000pt" viewBox="0 0 1280.000000 720.000000"
 preserveAspectRatio="xMidYMid meet">
  <g transform="translate(0.000000,720.000000) scale(0.100000,-0.100000)"
fill="#000000" stroke="none">
    <path d="M5585 6853 c-22 -2 -44 -8 -50 -12 -5 -5 -26 -11 -46 -15 -37 -6
-278 -125 -299 -146 -3 -3 -16 -11 -30 -18 -26 -12 -34 -17 -108 -64 -24 -16
-46 -28 -49 -28 -3 0 -42 -22 -88 -50 -46 -27 -87 -50 -93 -50 -6 0 -12 -4
-14 -8 -3 -8 -89 -59 -145 -86 -13 -6 -23 -14 -23 -18 0 -5 -5 -8 -11 -8 -5 0
-63 -31 -128 -70 -65 -38 -124 -70 -130 -70 -6 0 -11 -3 -11 -8 0 -4 -21 -19
-47 -32 -27 -14 -50 -28 -53 -31 -6 -7 -53 -32 -90 -49 -13 -6 -27 -14 -30
-18 -5 -6 -47 -31 -125 -71 -16 -9 -32 -19 -35 -22 -3 -3 -25 -16 -50 -30 -24
-13 -67 -39 -94 -56 -28 -18 -56 -33 -63 -33 -7 0 -13 -4 -13 -8 0 -4 -12 -13
-27 -20 -16 -6 -44 -21 -63 -33 -116 -70 -220 -129 -229 -129 -6 0 -11 -4 -11
-9 0 -5 -10 -13 -22 -17 -13 -4 -25 -10 -28 -14 -3 -4 -17 -13 -32 -21 -111
-58 -138 -74 -138 -81 0 -4 -6 -8 -14 -8 -26 0 -181 -126 -237 -193 -31 -37
-76 -107 -99 -155 -23 -48 -46 -94 -51 -104 -4 -9 -11 -39 -15 -67 -4 -28 -11
-54 -15 -57 -12 -7 -12 -2741 0 -2748 4 -3 11 -28 15 -55 4 -27 13 -62 21 -78
8 -15 15 -33 15 -39 0 -31 90 -173 155 -243 63 -69 186 -158 268 -193 15 -7
27 -16 27 -20 0 -4 5 -8 11 -8 8 0 247 -136 299 -170 8 -6 26 -16 40 -22 14
-7 27 -15 30 -18 3 -3 16 -11 30 -18 14 -7 34 -18 45 -25 11 -7 47 -27 80 -46
33 -19 62 -37 65 -40 5 -6 54 -33 125 -70 16 -9 32 -19 35 -22 8 -9 112 -68
143 -80 15 -6 27 -15 27 -20 0 -5 5 -9 11 -9 9 0 127 -67 279 -159 19 -11 46
-26 60 -33 14 -7 27 -15 30 -18 3 -3 30 -19 60 -34 30 -16 57 -31 60 -35 3 -3
23 -15 44 -26 22 -11 45 -24 51 -30 6 -5 26 -18 45 -29 87 -46 127 -69 155
-87 17 -10 42 -24 58 -30 15 -6 27 -15 27 -20 0 -5 5 -9 11 -9 8 0 194 -104
249 -140 8 -6 22 -13 30 -16 8 -3 29 -12 45 -19 17 -8 44 -17 60 -21 17 -4 36
-11 43 -17 18 -14 287 -21 347 -9 94 20 145 35 145 43 0 5 16 11 35 15 19 3
35 10 35 14 0 5 10 12 22 16 12 4 71 35 130 70 59 35 112 64 117 64 6 0 11 4
11 8 0 4 12 13 28 20 15 7 36 18 47 25 76 46 186 107 195 107 5 0 10 3 10 8 0
4 21 19 47 32 27 14 66 36 88 49 22 14 58 35 80 47 22 12 56 30 75 40 19 11
40 25 48 32 7 6 18 12 24 12 6 0 19 6 27 14 9 7 48 31 86 51 39 21 72 42 75
46 3 4 18 11 33 14 15 4 27 10 27 14 0 3 21 18 48 31 26 14 49 28 52 31 3 3
30 19 60 35 30 16 57 31 60 34 5 5 59 35 125 69 16 9 32 19 35 22 5 6 108 64
147 83 13 6 23 14 23 19 0 4 5 7 11 7 5 0 63 32 128 70 65 39 124 70 130 70 6
0 11 4 11 8 0 4 12 13 28 20 15 6 50 25 77 42 28 17 65 38 83 47 17 9 32 20
32 25 0 4 5 8 11 8 14 0 91 61 139 110 43 44 110 125 110 133 0 3 14 29 30 57
17 28 30 56 30 61 0 6 7 25 15 42 40 87 39 73 42 1511 2 924 0 1393 -7 1400
-5 5 -10 20 -10 33 0 52 -60 190 -125 288 -29 43 -134 145 -186 180 -24 17
-45 33 -47 38 -2 4 -8 7 -14 7 -6 0 -64 32 -129 70 -65 39 -123 70 -128 70 -6
0 -11 4 -11 9 0 5 -8 11 -17 14 -10 4 -38 18 -63 33 -25 14 -98 57 -162 95
-64 38 -122 69 -127 69 -6 0 -11 3 -11 8 0 4 -10 12 -23 18 -56 27 -142 78
-145 86 -2 4 -8 8 -14 8 -8 0 -129 68 -198 111 -8 5 -26 15 -40 21 -14 7 -27
15 -30 18 -10 10 -46 31 -72 41 -16 6 -28 15 -28 20 0 5 -5 9 -11 9 -6 0 -65
32 -130 70 -65 39 -123 70 -128 70 -6 0 -11 3 -11 8 0 4 -10 12 -23 18 -56 27
-142 78 -145 86 -2 4 -8 8 -14 8 -6 0 -47 23 -93 50 -46 28 -86 50 -91 50 -4
0 -15 6 -23 14 -9 7 -47 31 -86 51 -38 21 -72 41 -75 44 -18 21 -257 138 -297
146 -21 4 -44 11 -50 17 -13 11 -270 19 -338 11z m266 -1083 c143 -48 225
-134 270 -280 18 -59 21 -86 15 -149 l-6 -76 57 -33 c32 -17 81 -46 108 -62
28 -17 62 -36 78 -42 15 -7 27 -16 27 -20 0 -4 5 -8 11 -8 6 0 63 -31 127 -69
118 -69 160 -93 242 -139 25 -13 52 -31 61 -38 8 -8 20 -14 25 -14 5 0 45 -22
88 -49 l79 -49 56 43 c81 62 170 89 270 82 43 -2 86 -9 97 -14 10 -6 41 -21
68 -34 63 -31 139 -107 166 -166 12 -27 27 -59 33 -72 19 -39 15 -209 -6 -256
-61 -135 -127 -197 -269 -254 l-28 -11 0 -520 0 -520 28 -11 c131 -49 218
-134 265 -259 25 -67 23 -199 -4 -270 -77 -203 -284 -309 -493 -252 -51 14
-104 41 -136 70 -39 35 -63 37 -117 6 -26 -15 -58 -32 -70 -38 -13 -6 -23 -14
-23 -18 0 -5 -5 -8 -11 -8 -5 0 -63 -32 -128 -70 -65 -39 -124 -70 -130 -70
-6 0 -11 -4 -11 -9 0 -5 -8 -11 -17 -14 -24 -8 -77 -40 -81 -49 -2 -5 -8 -8
-14 -8 -6 0 -64 -32 -129 -70 -65 -39 -123 -70 -128 -70 -6 0 -11 -3 -11 -8 0
-4 -20 -18 -45 -31 -33 -18 -44 -29 -40 -40 3 -9 9 -43 12 -76 9 -103 -31
-212 -110 -301 -99 -110 -255 -157 -396 -119 -77 20 -112 39 -171 92 -102 92
-135 171 -134 320 0 57 -3 103 -7 103 -4 0 -14 6 -21 13 -8 6 -27 19 -43 28
-84 44 -120 65 -125 70 -3 3 -41 25 -85 49 -44 24 -81 47 -83 52 -2 4 -8 8
-14 8 -8 0 -142 75 -198 111 -8 5 -27 15 -42 22 -16 6 -28 14 -28 18 0 4 -11
10 -25 13 -14 4 -25 11 -25 16 0 6 -5 10 -11 10 -6 0 -48 23 -95 50 -47 28
-87 50 -90 50 -4 0 -23 -13 -43 -28 -75 -59 -153 -85 -251 -85 -164 0 -297 82
-371 231 -32 63 -34 73 -34 172 0 100 2 109 34 173 52 104 121 166 234 211
l37 15 0 521 0 521 -37 15 c-113 45 -193 115 -239 209 -27 56 -29 68 -29 175
0 107 2 119 29 174 29 60 106 147 159 180 47 29 146 56 207 56 76 0 169 -31
241 -80 52 -35 62 -39 82 -29 27 14 236 136 257 149 8 6 26 16 40 22 14 7 27
15 30 18 3 3 16 11 30 18 14 7 34 18 45 25 93 56 186 107 195 107 5 0 10 3 10
8 0 4 21 19 48 32 26 14 49 27 52 30 6 6 42 26 116 65 l51 27 -1 102 c-1 109
12 162 60 237 97 154 295 226 465 169z"/>
<path d="M5355 5049 c-44 -26 -86 -48 -92 -49 -7 0 -13 -4 -13 -8 0 -4 -12
-13 -27 -19 -16 -7 -35 -17 -43 -23 -45 -30 -291 -170 -299 -170 -6 0 -11 -4
-11 -8 0 -4 -12 -13 -27 -19 -16 -7 -35 -17 -43 -22 -42 -29 -190 -111 -199
-111 -6 0 -11 -4 -11 -8 0 -5 -16 -16 -35 -25 -31 -15 -34 -20 -25 -36 16 -30
12 -144 -7 -205 -34 -110 -151 -237 -243 -265 l-40 -12 0 -525 c0 -298 4 -523
9 -520 12 8 91 142 91 155 0 6 5 11 10 11 6 0 10 6 10 13 0 6 15 35 32 62 17
28 43 70 56 95 13 25 27 47 31 50 3 3 14 21 25 40 51 95 69 127 87 155 10 17
24 42 30 58 6 15 15 27 20 27 5 0 9 5 9 11 0 5 28 58 63 117 35 59 66 114 70
122 4 8 16 29 27 45 11 17 24 39 29 50 9 21 154 269 171 295 6 8 16 27 23 43
6 15 15 27 19 27 4 0 8 5 8 11 0 12 109 201 121 209 4 3 11 18 14 33 4 15 11
27 15 27 4 0 10 8 13 18 4 9 18 37 33 62 14 25 57 98 95 162 38 64 69 121 69
127 0 5 5 11 11 13 6 2 10 11 8 19 -3 13 -21 6 -84 -32z"/>
<path d="M6020 5091 c0 -6 17 -39 38 -73 21 -35 51 -88 66 -118 16 -30 31 -57
35 -60 3 -3 13 -19 22 -35 37 -71 64 -120 70 -125 3 -3 21 -32 40 -65 19 -33
40 -69 46 -80 7 -11 18 -32 25 -47 7 -16 16 -28 20 -28 4 0 8 -5 8 -11 0 -5
38 -75 85 -154 47 -79 85 -148 85 -154 0 -6 4 -11 9 -11 5 0 13 -10 17 -22 4
-13 19 -41 33 -63 28 -45 75 -127 94 -165 6 -14 15 -27 19 -30 4 -3 12 -17 18
-30 5 -14 19 -38 29 -55 11 -16 32 -52 47 -80 14 -27 29 -52 33 -55 6 -5 31
-50 70 -125 9 -16 19 -32 22 -35 4 -3 18 -27 33 -55 15 -27 31 -57 36 -65 25
-41 138 -236 141 -245 11 -27 52 -85 60 -85 5 0 9 220 9 525 l0 525 -27 6
c-115 29 -229 151 -265 282 -18 63 -21 153 -7 178 7 13 10 26 8 28 -14 13
-159 96 -168 96 -6 0 -11 3 -11 8 0 4 -10 12 -23 18 -56 27 -142 78 -145 86
-2 4 -8 8 -14 8 -8 0 -126 66 -198 111 -8 5 -26 14 -40 20 -13 5 -27 13 -30
17 -3 4 -23 16 -44 27 -22 11 -44 25 -50 30 -6 6 -22 16 -36 22 -47 23 -129
70 -145 83 -10 8 -15 9 -15 1z"/>
<path d="M5785 4980 c-27 -4 -78 -5 -112 -2 -55 4 -63 2 -69 -14 -6 -15 -104
-189 -144 -254 -5 -8 -21 -37 -36 -65 -15 -27 -29 -52 -33 -55 -6 -5 -31 -50
-70 -125 -9 -16 -19 -32 -22 -35 -4 -3 -19 -27 -33 -55 -15 -27 -36 -63 -47
-80 -10 -16 -23 -39 -28 -50 -5 -11 -30 -55 -55 -98 -25 -43 -46 -79 -46 -82
0 -2 -13 -23 -29 -47 -16 -24 -32 -53 -35 -65 -4 -13 -12 -23 -17 -23 -5 0 -9
-5 -9 -11 0 -6 -38 -75 -85 -154 -47 -79 -85 -149 -85 -154 0 -6 -4 -11 -8
-11 -4 0 -13 -12 -20 -27 -7 -16 -18 -37 -25 -48 -6 -11 -27 -47 -46 -80 -19
-33 -37 -62 -40 -65 -6 -5 -33 -54 -70 -125 -9 -16 -19 -32 -23 -35 -4 -3 -12
-17 -17 -30 -6 -14 -15 -32 -20 -40 -22 -35 -112 -190 -125 -215 -13 -24 -12
-29 14 -56 15 -17 37 -51 49 -77 12 -26 26 -54 30 -62 7 -13 152 -15 1206 -15
l1199 0 9 35 c5 19 12 37 15 40 4 3 14 18 22 33 8 16 25 40 37 53 13 14 23 27
23 30 0 2 -12 23 -27 47 -25 39 -41 68 -89 157 -11 19 -22 37 -25 40 -3 3 -21
32 -40 65 -18 33 -42 74 -52 90 -9 17 -20 38 -23 48 -4 9 -10 17 -14 17 -4 0
-11 12 -15 27 -3 15 -10 30 -14 33 -12 8 -121 197 -121 209 0 6 -4 11 -8 11
-4 0 -13 12 -19 28 -7 15 -17 34 -23 42 -30 45 -170 291 -170 299 0 6 -4 11
-9 11 -5 0 -14 12 -20 28 -6 15 -15 34 -21 42 -34 53 -140 241 -140 249 0 6
-4 11 -9 11 -5 0 -14 12 -20 28 -6 15 -20 41 -30 57 -18 28 -36 60 -87 155
-11 19 -22 37 -25 40 -4 3 -18 25 -31 50 -13 25 -39 68 -56 95 -17 28 -32 56
-32 63 0 6 -4 12 -8 12 -4 0 -13 12 -20 28 -16 36 -38 72 -48 81 -5 4 -31 4
-59 1z"/>
<path d="M4534 2511 c4 -5 37 -27 74 -48 37 -21 76 -43 87 -50 11 -7 31 -18
45 -25 14 -7 27 -15 30 -18 3 -3 16 -11 30 -18 14 -6 32 -16 40 -22 19 -12
160 -94 180 -103 8 -5 32 -18 52 -30 20 -12 60 -35 90 -51 29 -16 55 -31 58
-35 5 -6 50 -31 125 -70 16 -9 32 -19 35 -22 7 -9 47 -29 57 -29 5 0 19 9 30
20 12 11 48 34 80 52 57 32 61 33 178 33 111 0 124 -2 178 -28 31 -16 63 -34
70 -40 57 -53 54 -52 95 -31 20 10 39 22 40 27 2 4 8 7 13 7 9 0 197 106 249
140 8 6 26 16 40 22 14 7 31 18 38 25 7 7 17 13 22 13 4 0 57 29 118 65 60 36
114 65 120 65 6 0 12 3 14 8 4 9 57 41 81 49 9 3 17 9 17 14 0 5 6 9 13 9 18
0 107 58 107 70 0 7 -410 10 -1206 10 -730 0 -1203 -4 -1200 -9z"/>
</g>
</svg>
