<svg xmlns="http://www.w3.org/2000/svg" width="38" height="34" fill="none"><path fill="#545454" d="M4.604 17.792C1.284 13.832 1.8 7.929 5.757 4.607A9.35 9.35 0 0 1 18.935 5.76l-1.532 1.286a7.35 7.35 0 0 0-10.36-.907 7.36 7.36 0 0 0-.908 10.367zm23.431.375-12.8 10.746zM14.47 29.557 4.604 17.791C1.284 13.832 1.8 7.929 5.757 4.607l1.285 1.532a7.36 7.36 0 0 0-.907 10.367l9.867 11.764zM5.757 4.606A9.35 9.35 0 0 1 18.935 5.76L28.8 17.524l-1.53 1.286-9.867-11.764a7.35 7.35 0 0 0-10.36-.907z"/><path fill="#545454" d="m14.017 27.46 4.266-3.582zm8.727.18a3.79 3.79 0 0 1-.466 5.335 3.783 3.783 0 0 1-5.332-.466l1.532-1.286a1.784 1.784 0 1 0 2.734-2.296zm-.466 5.335a3.783 3.783 0 0 1-5.332-.466l-3.695-4.406 1.532-1.286 3.695 4.406c.633.755 1.76.854 2.514.22zm-3.229-9.74 3.695 4.406a3.79 3.79 0 0 1-.466 5.334l-1.286-1.532c.756-.634.854-1.76.22-2.516l-3.695-4.406z"/><path fill="#545454" d="m18.283 23.878 4.267-3.582zm8.728.181a3.79 3.79 0 0 1-.467 5.334 3.783 3.783 0 0 1-5.332-.466l1.532-1.286a1.784 1.784 0 1 0 2.735-2.296zm-.467 5.334a3.783 3.783 0 0 1-5.332-.466l-3.695-4.406 1.532-1.286 3.695 4.406c.634.756 1.76.854 2.515.22zm-3.228-9.74 3.695 4.406a3.79 3.79 0 0 1-.467 5.334l-1.285-1.532c.755-.634.854-1.76.22-2.516l-3.695-4.406z"/><path fill="#545454" d="m22.55 20.296 4.266-3.582zm8.727.18a3.79 3.79 0 0 1-.466 5.335 3.783 3.783 0 0 1-5.332-.466l1.532-1.286a1.784 1.784 0 1 0 2.735-2.296zm-.466 5.335a3.783 3.783 0 0 1-5.332-.466l-3.695-4.406 1.532-1.286 3.695 4.406c.633.755 1.76.854 2.514.22zm-3.229-9.74 3.695 4.406a3.79 3.79 0 0 1-.466 5.334l-1.286-1.532c.756-.634.854-1.76.22-2.516l-3.695-4.406z"/><path fill="transparent" d="M31.684 18.002a8.243 8.243 0 0 0 .958-11.613 8.23 8.23 0 0 0-11.607-.958l-1.883 1.596 10.649 12.571z"/><path fill="#545454" d="M32.33 18.765a9.243 9.243 0 0 0 1.075-13.023 9.23 9.23 0 0 0-13.016-1.074l1.292 1.526a7.233 7.233 0 0 1 10.198.842 7.24 7.24 0 0 1-.842 10.203zM19.153 7.027 29.8 19.598zm11.294 13.334 1.883-1.596a9.243 9.243 0 0 0 1.075-13.023l-1.526 1.294a7.24 7.24 0 0 1-.842 10.203l-1.882 1.596zm2.957-14.619A9.23 9.23 0 0 0 20.39 4.668l-1.883 1.596L19.8 7.79l1.882-1.596a7.233 7.233 0 0 1 10.198.842z"/><path fill="transparent" d="m22.988 11.025-3.55-4.19-3.795 3.218a2.75 2.75 0 0 0-.32 3.871 2.744 2.744 0 0 0 3.87.32z"/><path fill="#545454" d="m22.988 11.025-3.55-4.19zM14.997 9.29a3.75 3.75 0 0 0-.436 5.28 3.743 3.743 0 0 0 5.278.436l-1.293-1.526a1.745 1.745 0 1 1-2.257-2.664zm-.436 5.28a3.743 3.743 0 0 0 5.278.436l3.795-3.218-1.293-1.526-3.795 3.218a1.745 1.745 0 0 1-2.46-.203zm4.23-8.499L14.997 9.29a3.75 3.75 0 0 0-.435 5.28l1.525-1.293a1.747 1.747 0 0 1 .203-2.461l3.796-3.219z"/><path fill="#FFF2D9" stroke="#545454" d="M27.515 11.717a3.66 3.66 0 0 1-5.396-.313l.284-.23a3.295 3.295 0 0 0 4.857.281z"/></svg>
