<svg width="86" height="32" viewBox="0 0 553 206" fill="none" xmlns="http://www.w3.org/2000/svg">
  <g clip-path="url(#clip0_9242_30)">
    <path
      d="M285.4 68.0001L311.7 66.3001C312.3 70.6001 313.4 73.8001 315.2 76.1001C318.1 79.7001 322.1 81.5001 327.4 81.5001C331.3 81.5001 334.4 80.6001 336.5 78.7001C338.5 77.2001 339.7 74.8001 339.7 72.3001C339.7 69.9001 338.6 67.6001 336.7 66.1001C334.7 64.3001 330 62.5001 322.6 60.9001C310.5 58.2001 301.8 54.6001 296.7 50.0001C291.6 45.7001 288.7 39.4001 288.9 32.7001C288.9 28.1001 290.3 23.5001 292.9 19.7001C295.9 15.4001 300 12.0001 304.9 10.1001C310.2 7.8001 317.6 6.6001 326.9 6.6001C338.3 6.6001 347 8.7001 353 13.0001C359 17.2001 362.6 24.0001 363.7 33.3001L337.7 34.8001C337 30.8001 335.6 27.9001 333.3 26.0001C331 24.1001 328 23.2001 324.1 23.2001C320.9 23.2001 318.5 23.9001 316.9 25.2001C315.4 26.4001 314.4 28.2001 314.5 30.2001C314.5 31.7001 315.3 33.1001 316.5 34.0001C317.8 35.2001 320.9 36.3001 325.8 37.3001C337.9 39.9001 346.5 42.5001 351.8 45.2001C357.1 47.9001 360.9 51.2001 363.2 55.1001C365.6 59.1001 366.8 63.7001 366.7 68.4001C366.7 74.0001 365.1 79.6001 361.9 84.3001C358.6 89.2001 354 93.0001 348.6 95.3001C342.9 97.8001 335.7 99.1001 327.1 99.1001C311.9 99.1001 301.4 96.2001 295.5 90.3001C289.6 84.4001 286.1 77.0001 285.4 68.0001ZM6.3 97.6001V8.2001H52.4C60.9 8.2001 67.5 8.9001 72 10.4001C76.4 11.8001 80.3 14.7001 82.9 18.6001C85.8 22.9001 87.2 27.9001 87.1 33.1001C87.4 41.9001 82.9 50.3001 75.2 54.7001C72.2 56.4001 68.9 57.6001 65.5 58.2001C68 58.9001 70.5 60.1001 72.7 61.5001C74.4 62.9001 75.8 64.5001 77.1 66.2001C78.6 67.9001 79.9 69.8001 81 71.8001L94.4 97.7001H63L48.2 70.2001C46.3 66.7001 44.7 64.4001 43.2 63.3001C41.2 61.9001 38.8 61.2001 36.4 61.2001H34V97.5001H6.3V97.6001ZM34 44.4001H45.7C48.2 44.2001 50.6 43.8001 53 43.2001C54.8 42.9001 56.4 41.9001 57.5 40.4001C60.2 36.8001 59.8 31.7001 56.5 28.6001C54.7 27.1001 51.2 26.3001 46.2 26.3001H34V44.4001ZM0 174.2L26.3 172.5C26.9 176.8 28 180 29.8 182.3C32.6 185.9 36.7 187.8 42 187.8C45.9 187.8 49 186.9 51.1 185C53.1 183.4 54.3 181.1 54.3 178.6C54.3 176.2 53.2 173.9 51.3 172.4C49.3 170.6 44.6 168.8 37.1 167.2C25 164.5 16.3 160.9 11.2 156.3C6.1 152 3.2 145.7 3.4 139C3.4 134.4 4.8 129.8 7.4 126C10.4 121.7 14.5 118.3 19.4 116.4C24.7 114.1 32.1 112.9 41.4 112.9C52.8 112.9 61.5 115 67.5 119.3C73.5 123.6 77 130.3 78.1 139.6L52.1 141.1C51.4 137.1 50 134.2 47.7 132.3C45.5 130.4 42.4 129.5 38.5 129.6C35.3 129.6 32.9 130.3 31.3 131.7C29.7 132.9 28.8 134.7 28.9 136.7C28.9 138.2 29.7 139.6 30.9 140.5C32.2 141.7 35.3 142.8 40.2 143.8C52.3 146.4 60.9 149 66.2 151.7C71.5 154.4 75.3 157.7 77.6 161.6C80 165.6 81.2 170.2 81.2 174.8C81.2 180.4 79.5 185.9 76.4 190.6C73.1 195.5 68.5 199.3 63.1 201.6C57.4 204.1 50.2 205.4 41.6 205.4C26.4 205.4 15.9 202.5 10 196.6C4.1 190.6 0.8 183.2 0 174.2H0Z"
      fill="#2a2a2a" />
    <path
      d="M133 167.2L157.2 174.5C155.9 180.6 153.2 186.4 149.5 191.5C146.1 196 141.6 199.5 136.5 201.8C131.3 204.1 124.7 205.3 116.7 205.3C107 205.3 99 203.9 92.9 201.1C86.7 198.3 81.4 193.3 76.9 186.2C72.4 179.1 70.2 170 70.2 158.9C70.2 144.1 74.1 132.7 82 124.8C89.9 116.9 101 112.9 115.4 112.9C126.7 112.9 135.5 115.2 142 119.7C148.4 124.3 153.2 131.3 156.4 140.7L132 146.1C131.4 144 130.5 141.9 129.3 140.1C127.8 138 125.9 136.4 123.6 135.2C121.3 134 118.7 133.5 116.1 133.5C109.8 133.5 105 136 101.7 141.1C99.2 144.8 97.9 150.7 97.9 158.7C97.9 168.6 99.4 175.4 102.4 179.1C105.4 182.8 109.6 184.6 115.1 184.6C120.4 184.6 124.4 183.1 127.1 180.2C129.8 177.1 131.8 172.8 133 167.2ZM189.5 114.4H217.1V145.7H247.3V114.4H275.1V203.8H247.3V167.6H217.1V203.8H189.5V114.4V114.4Z"
      fill="#2a2a2a" />
    <path
      d="M271.3 159.1C271.3 144.5 275.4 133.1 283.5 125C291.6 116.9 303 112.8 317.5 112.8C332.4 112.8 343.8 116.8 351.9 124.8C360 132.8 364 144 364 158.4C364 168.9 362.2 177.4 358.7 184.1C355.3 190.7 350 196.1 343.5 199.7C336.8 203.4 328.5 205.3 318.6 205.3C308.5 205.3 300.2 203.7 293.6 200.5C286.8 197.1 281.2 191.8 277.5 185.3C273.4 178.3 271.3 169.6 271.3 159.1ZM298.9 159.2C298.9 168.2 300.6 174.7 303.9 178.7C307.2 182.6 311.8 184.6 317.6 184.6C323.5 184.6 328.1 182.7 331.4 178.8C334.7 174.9 336.3 168 336.3 158C336.3 149.6 334.6 143.4 331.2 139.6C327.8 135.7 323.2 133.8 317.4 133.8C312.3 133.6 307.4 135.8 304 139.7C300.6 143.6 298.9 150.1 298.9 159.2V159.2ZM392.3 159.1C392.3 144.5 396.4 133.1 404.5 125C412.6 116.9 424 112.8 438.5 112.8C453.4 112.8 464.9 116.8 472.9 124.8C480.9 132.8 485 144 485 158.4C485 168.9 483.2 177.4 479.7 184.1C476.3 190.7 471 196.1 464.5 199.7C457.8 203.4 449.5 205.3 439.6 205.3C429.5 205.3 421.2 203.7 414.6 200.5C407.8 197.1 402.2 191.8 398.5 185.3C394.4 178.3 392.3 169.6 392.3 159.1V159.1ZM419.9 159.2C419.9 168.2 421.6 174.7 424.9 178.7C428.2 182.6 432.8 184.6 438.6 184.6C444.5 184.6 449.1 182.7 452.4 178.8C455.7 174.9 457.3 168 457.3 158C457.3 149.6 455.6 143.4 452.2 139.6C448.8 135.7 444.2 133.8 438.4 133.8C433.3 133.6 428.3 135.8 425 139.7C421.6 143.6 419.9 150.1 419.9 159.2V159.2Z"
      fill="#2a2a2a" />
    <path d="M482.1 114.4H509.7V181.8H552.8V203.8H482V114.4H482.1Z" fill="#2a2a2a" />
    <path
      d="M451.679 109.241C479.466 88.3008 488.035 52.8041 470.817 29.9568C453.6 7.10944 417.117 5.56324 389.329 26.5032C361.542 47.4432 352.973 82.9399 370.191 105.787C387.408 128.635 423.891 130.181 451.679 109.241Z"
      fill="#2a2a2a" />
    <path
      d="M451.679 109.241C479.466 88.3008 488.035 52.8041 470.817 29.9568C453.6 7.10944 417.117 5.56324 389.329 26.5032C361.542 47.4432 352.973 82.9399 370.191 105.787C387.408 128.635 423.891 130.181 451.679 109.241Z"
      fill="#2a2a2a" />
    <path
      d="M370.515 106.754C353.281 83.8845 357.85 51.3744 380.72 34.1409L398.449 20.7806C421.319 3.54702 453.829 8.116 471.063 30.9857V30.9857C488.296 53.8554 483.727 86.3655 460.858 103.599L443.128 116.959C420.258 134.193 387.748 129.624 370.515 106.754V106.754Z"
      fill="#2a2a2a" />
    <path
      d="M451.679 109.241C479.466 88.3008 488.035 52.8041 470.817 29.9568C453.6 7.10944 417.117 5.56324 389.329 26.5032C361.542 47.4432 352.973 82.9399 370.191 105.787C387.408 128.635 423.891 130.181 451.679 109.241Z"
      fill="#2a2a2a" />
    <path
      d="M451.679 109.241C479.466 88.3008 488.035 52.8041 470.817 29.9568C453.6 7.10944 417.117 5.56324 389.329 26.5032C361.542 47.4432 352.973 82.9399 370.191 105.787C387.408 128.635 423.891 130.181 451.679 109.241Z"
      stroke="#2a2a2a" stroke-width="3" stroke-miterlimit="10" />
    <path
      d="M451.679 109.241C479.466 88.3008 488.035 52.8041 470.817 29.9568C453.6 7.10944 417.117 5.56324 389.329 26.5032C361.542 47.4432 352.973 82.9399 370.191 105.787C387.408 128.635 423.891 130.181 451.679 109.241Z"
      fill="#2a2a2a" />
    <path
      d="M451.679 109.241C479.466 88.3008 488.035 52.8041 470.817 29.9568C453.6 7.10944 417.117 5.56324 389.329 26.5032C361.542 47.4432 352.973 82.9399 370.191 105.787C387.408 128.635 423.891 130.181 451.679 109.241Z"
      fill="#fff" stroke="#2a2a2a" stroke-width="4" stroke-miterlimit="10" />
    <path
      d="M392.07 93.7599L399.912 86.465C400.584 87.4154 401.397 88.2783 402.288 88.9904L402.298 88.9989L402.309 89.0069C403.082 89.5586 403.982 89.9 405 89.9C405.821 89.9 406.616 89.5583 407.186 89.1113C408.315 88.419 409.115 87.0575 408.998 85.6585L408.996 85.6357L408.992 85.6131C408.682 83.8516 407.956 82.0717 406.796 80.6934L393.099 61.4208L402.278 54.9958L414.291 72.0875L414.295 72.0938L414.3 72.1C416.365 74.8539 417.94 77.8042 419.124 81.0529C419.786 83.4339 419.595 86.0102 418.64 88.3044C417.379 91.2129 415.344 93.6342 412.63 95.3794L412.622 95.3845L412.614 95.3898C409.343 97.6698 406.614 98.9241 404.318 99.3068L404.314 99.3074C402.131 99.6871 399.836 99.3108 397.715 98.3486C395.515 97.247 393.581 95.7166 392.07 93.7599ZM432.9 36C435.789 36 438.542 37.2881 441.165 40.0428L432.968 46.5098C430.942 44.3338 427.487 43.9321 425.092 45.8062L425.068 45.825L425.046 45.8465L424.789 46.104C423.711 46.7676 422.96 47.7496 422.531 48.9268C422.161 49.9152 422.419 50.9873 422.993 51.7906L423.001 51.8017L423.01 51.8123C423.466 52.3833 424.186 52.8882 425.069 52.8998C425.565 52.9547 426.181 52.8575 426.887 52.6558C427.618 52.4471 428.49 52.1127 429.499 51.6586C434.485 49.5649 438.238 48.3846 440.776 47.9942L440.776 47.9944L440.789 47.9919C442.901 47.608 445.101 47.8014 447.103 48.6596L447.106 48.6608C448.907 49.4192 450.431 50.7501 451.48 52.3716L451.485 52.3793L451.49 52.3867C452.834 54.3061 453.604 56.6127 453.7 59.0193C453.796 61.5127 453.126 63.9112 451.781 66.0271C450.018 68.6703 447.766 70.9216 445.123 72.684L445.123 72.6839L445.116 72.6886C439.641 76.4711 435.282 77.9734 431.882 77.4068L431.882 77.4068L431.876 77.4058C428.284 76.8532 425.308 75.0736 423.109 72.4765L431.438 65.8865C432.445 66.9722 433.694 67.7929 435.032 68.2709L435.044 68.2752L435.056 68.2789C437.21 68.925 439.47 68.4935 441.291 67.107C442.546 66.267 443.635 65.0861 444.078 63.5477C444.758 61.4885 443.617 59.2118 441.558 58.5257L441.529 58.5159C441.254 58.4242 440.896 58.3046 440.522 58.3001C439.843 58.2472 438.962 58.3627 437.887 58.6409C436.795 58.9236 435.472 59.3826 433.908 60.0382C428.84 62.1248 424.931 62.8904 422.05 62.6025C419.285 62.3162 416.73 60.8883 415.221 58.5305L415.215 58.5209L415.208 58.5117C414.073 56.9026 413.498 55.0018 413.4 53.0875C413.402 50.8768 413.98 48.6851 415.211 46.8851C417.077 44.2333 419.331 41.9815 422.07 40.2206L422.077 40.2161L422.084 40.2114C426.242 37.3404 429.842 36 432.9 36Z"
      fill="#2a2a2a" stroke="#2a2a2a" />
  </g>
  <defs>
    <clipPath id="clip0_9242_30">
      <rect width="552.8" height="205.3" fill="#2a2a2a" />
    </clipPath>
  </defs>
</svg>
