<svg xmlns="http://www.w3.org/2000/svg" width="40" height="40" fill="none"><path stroke="#545454" stroke-width="2" d="M23.462 22.871a6.23 6.23 0 0 1 5.097-6.424l5.086-.955a6.226 6.226 0 0 1-5.097 6.425zm-4.914-12.329c-.326-3.787-3.416-6.696-7.114-6.898l.113 1.312c.326 3.787 3.416 6.696 7.113 6.899zm4.112 1.027a6.98 6.98 0 0 1 5.435-7.425l.075.874a6.98 6.98 0 0 1-5.435 7.424zM6.163 16.84a6.76 6.76 0 0 0 5.804 6.803l4.91.72a6.76 6.76 0 0 0-5.804-6.804z"/><path fill="#545454" d="M21.022 15.287a1 1 0 1 0-2 0zm-2 0V38h2V15.287z"/></svg>
